  0
SECTION
  2
HEADER
  9
$ACADVER
  1
AC1014
  9
$HANDSEED
  5
FFFF
  9
$MEASUREMENT
 70
     1
  0
ENDSEC
  0
SECTION
  2
TABLES
  0
TABLE
  2
VPORT
  5
8
330
0
100
AcDbSymbolTable
 70
     4
  0
VPORT
  5
2E
330
8
100
AcDbSymbolTableRecord
100
AcDbViewportTableRecord
  2
*ACTIVE
 70
     0
 10
0.0
 20
0.0
 11
1.0
 21
1.0
 12
210.0
 22
148.5
 13
0.0
 23
0.0
 14
10.0
 24
10.0
 15
10.0
 25
10.0
 16
0.0
 26
0.0
 36
1.0
 17
0.0
 27
0.0
 37
0.0
 40
341.0
 41
1.24
 42
50.0
 43
0.0
 44
0.0
 50
0.0
 51
0.0
 71
     0
 72
   100
 73
     1
 74
     3
 75
     0
 76
     0
 77
     0
 78
     0
  0
ENDTAB
  0
TABLE
  2
LTYPE
  5
5
330
0
100
AcDbSymbolTable
 70
     1
  0
LTYPE
  5
14
330
5
100
AcDbSymbolTableRecord
100
AcDbLinetypeTableRecord
  2
BYBLOCK
 70
     0
  3

 72
    65
 73
     0
 40
0.0
  0
LTYPE
  5
15
330
5
100
AcDbSymbolTableRecord
100
AcDbLinetypeTableRecord
  2
BYLAYER
 70
     0
  3

 72
    65
 73
     0
 40
0.0
  0
LTYPE
  5
16
330
5
100
AcDbSymbolTableRecord
100
AcDbLinetypeTableRecord
  2
CONTINUOUS
 70
     0
  3
Solid line
 72
    65
 73
     0
 40
0.0
  0
ENDTAB
  0
TABLE
  2
LAYER
  5
2
100
AcDbSymbolTable
 70
1
  0
LAYER
  5
50
100
AcDbSymbolTableRecord
100
AcDbLayerTableRecord
  2
0
 70
0
  6
CONTINUOUS
  0
ENDTAB
  0
TABLE
  2
STYLE
  5
3
330
0
100
AcDbSymbolTable
 70
     1
  0
STYLE
  5
11
330
3
100
AcDbSymbolTableRecord
100
AcDbTextStyleTableRecord
  2
STANDARD
 70
     0
 40
0.0
 41
1.0
 50
0.0
 71
     0
 42
2.5
  3
txt
  4

  0
ENDTAB
  0
TABLE
  2
VIEW
  5
6
330
0
100
AcDbSymbolTable
 70
     0
  0
ENDTAB
  0
TABLE
  2
UCS
  5
7
330
0
100
AcDbSymbolTable
 70
     0
  0
ENDTAB
  0
TABLE
  2
APPID
  5
9
330
0
100
AcDbSymbolTable
 70
     2
  0
APPID
  5
12
330
9
100
AcDbSymbolTableRecord
100
AcDbRegAppTableRecord
  2
ACAD
 70
     0
  0
ENDTAB
  0
TABLE
  2
DIMSTYLE
  5
A
330
0
100
AcDbSymbolTable
 70
     1
  0
DIMSTYLE
105
27
330
A
100
AcDbSymbolTableRecord
100
AcDbDimStyleTableRecord
  2
ISO-25
 70
     0
  3

  4

  5

  6

  7

 40
1.0
 41
2.5
 42
0.625
 43
3.75
 44
1.25
 45
0.0
 46
0.0
 47
0.0
 48
0.0
140
2.5
141
2.5
142
0.0
143
0.03937007874016
144
1.0
145
0.0
146
1.0
147
0.625
 71
     0
 72
     0
 73
     0
 74
     0
 75
     0
 76
     0
 77
     1
 78
     8
170
     0
171
     3
172
     1
173
     0
174
     0
175
     0
176
     0
177
     0
178
     0
270
     2
271
     2
272
     2
273
     2
274
     3
340
11
275
     0
280
     0
281
     0
282
     0
283
     0
284
     8
285
     0
286
     0
287
     3
288
     0
  0
ENDTAB
  0
TABLE
  2
BLOCK_RECORD
  5
1
330
0
100
AcDbSymbolTable
 70
     1
  0
BLOCK_RECORD
  5
1F
330
1
100
AcDbSymbolTableRecord
100
AcDbBlockTableRecord
  2
*MODEL_SPACE
  0
BLOCK_RECORD
  5
1B
330
1
100
AcDbSymbolTableRecord
100
AcDbBlockTableRecord
  2
*PAPER_SPACE
  0
ENDTAB
  0
ENDSEC
  0
SECTION
  2
BLOCKS
  0
BLOCK
  5
20
330
1F
100
AcDbEntity
  8
0
100
AcDbBlockBegin
  2
*MODEL_SPACE
 70
     0
 10
0.0
 20
0.0
 30
0.0
  3
*MODEL_SPACE
  1

  0
ENDBLK
  5
21
330
1F
100
AcDbEntity
  8
0
100
AcDbBlockEnd
  0
BLOCK
  5
1C
330
1B
100
AcDbEntity
 67
     1
  8
0
100
AcDbBlockBegin
  2
*PAPER_SPACE
  1

  0
ENDBLK
  5
1D
330
1B
100
AcDbEntity
 67
     1
  8
0
100
AcDbBlockEnd
  0
ENDSEC
  0
SECTION
  2
ENTITIES
  0
LWPOLYLINE
  5
100
100
AcDbEntity
  8
0
 62
7
100
AcDbPolyline
 90
57
 70
0
 10
-19.278786
 20
77.763339
 30
0.0
 10
-19.173534
 20
78.102384
 30
0.0
 10
-19.006181
 20
78.410676
 30
0.0
 10
-18.784063
 20
78.679773
 30
0.0
 10
-18.513865
 20
78.902507
 30
0.0
 10
-18.202303
 20
79.071343
 30
0.0
 10
-17.857967
 20
79.177973
 30
0.0
 10
-17.528616
 20
79.211080
 30
0.0
 10
72.518837
 20
79.222299
 30
0.0
 10
118.788917
 20
72.261134
 30
0.0
 10
119.711889
 20
71.816592
 30
0.0
 10
120.514306
 20
71.114512
 30
0.0
 10
120.998563
 20
70.279586
 30
0.0
 10
121.259854
 20
69.365072
 30
0.0
 10
121.259881
 20
-5.623033
 30
0.0
 10
121.208015
 20
-6.056526
 30
0.0
 10
121.075773
 20
-6.483008
 30
0.0
 10
120.863120
 20
-6.875068
 30
0.0
 10
120.581976
 20
-7.215877
 30
0.0
 10
120.241159
 20
-7.497024
 30
0.0
 10
119.849120
 20
-7.709669
 30
0.0
 10
119.410280
 20
-7.845744
 30
0.0
 10
118.970722
 20
-7.884109
 30
0.0
 10
76.514481
 20
-7.884135
 30
0.0
 10
75.928625
 20
-7.943111
 30
0.0
 10
75.423488
 20
-8.099744
 30
0.0
 10
74.966163
 20
-8.347791
 30
0.0
 10
74.567143
 20
-8.676959
 30
0.0
 10
74.237991
 20
-9.075977
 30
0.0
 10
73.989923
 20
-9.533309
 30
0.0
 10
73.829157
 20
-10.051787
 30
0.0
 10
73.749189
 20
-10.640855
 30
0.0
 10
73.748131
 20
-20.361564
 30
0.0
 10
73.704580
 20
-20.761482
 30
0.0
 10
73.571045
 20
-21.192118
 30
0.0
 10
73.358394
 20
-21.584151
 30
0.0
 10
73.077251
 20
-21.924987
 30
0.0
 10
72.736430
 20
-22.206106
 30
0.0
 10
72.344392
 20
-22.418779
 30
0.0
 10
71.910677
 20
-22.553266
 30
0.0
 10
71.488219
 20
-22.595785
 30
0.0
 10
11.289666
 20
-22.595785
 30
0.0
 10
-1.268020
 20
-29.865395
 30
0.0
 10
-1.520088
 20
-29.993797
 30
0.0
 10
-1.835493
 20
-30.087592
 30
0.0
 10
-2.178976
 20
-30.109552
 30
0.0
 10
-2.525476
 20
-30.040787
 30
0.0
 10
-2.836984
 20
-29.885424
 30
0.0
 10
-3.089812
 20
-29.670159
 30
0.0
 10
-3.279897
 20
-29.427298
 30
0.0
 10
-17.989562
 20
-3.921128
 30
0.0
 10
-18.593782
 20
-2.549978
 30
0.0
 10
-18.883115
 20
-1.450608
 30
0.0
 10
-19.152867
 20
-0.108801
 30
0.0
 10
-19.285685
 20
1.393715
 30
0.0
 10
-19.351461
 20
2.234878
 30
0.0
 10
-19.419406
 20
3.478419
 30
0.0
  0
LWPOLYLINE
  5
101
100
AcDbEntity
  8
0
 62
7
100
AcDbPolyline
 90
2
 70
0
 10
-19.313725
 20
77.421905
 30
0.0
 10
-19.278786
 20
77.763339
 30
0.0
  0
SPLINE
  5
102
100
AcDbEntity
  8
0
 62
7
100
AcDbSpline
 70
8
 71
3
 72
8
 73
4
 74
0
 40
0
 40
0
 40
0
 40
0
 40
1
 40
1
 40
1
 40
1
 10
26.480472
 20
56.700405
 30
0.0
 10
26.480848
 20
57.075785
 30
0.0
 10
26.280802
 20
57.422812
 30
0.0
 10
25.955776
 20
57.610610
 30
0.0
  0
SPLINE
  5
103
100
AcDbEntity
  8
0
 62
7
100
AcDbSpline
 70
8
 71
3
 72
8
 73
4
 74
0
 40
0
 40
0
 40
0
 40
0
 40
1
 40
1
 40
1
 40
1
 10
25.955776
 20
57.610610
 30
0.0
 10
25.630751
 20
57.798409
 30
0.0
 10
25.230194
 20
57.798409
 30
0.0
 10
24.905168
 20
57.610610
 30
0.0
  0
SPLINE
  5
104
100
AcDbEntity
  8
0
 62
7
100
AcDbSpline
 70
8
 71
3
 72
8
 73
4
 74
0
 40
0
 40
0
 40
0
 40
0
 40
1
 40
1
 40
1
 40
1
 10
24.905168
 20
57.610610
 30
0.0
 10
24.580143
 20
57.422812
 30
0.0
 10
24.380096
 20
57.075785
 30
0.0
 10
24.380473
 20
56.700405
 30
0.0
  0
SPLINE
  5
105
100
AcDbEntity
  8
0
 62
7
100
AcDbSpline
 70
8
 71
3
 72
8
 73
4
 74
0
 40
0
 40
0
 40
0
 40
0
 40
1
 40
1
 40
1
 40
1
 10
24.380473
 20
56.700405
 30
0.0
 10
24.380096
 20
56.325026
 30
0.0
 10
24.580143
 20
55.977999
 30
0.0
 10
24.905168
 20
55.790201
 30
0.0
  0
SPLINE
  5
106
100
AcDbEntity
  8
0
 62
7
100
AcDbSpline
 70
8
 71
3
 72
8
 73
4
 74
0
 40
0
 40
0
 40
0
 40
0
 40
1
 40
1
 40
1
 40
1
 10
24.905168
 20
55.790201
 30
0.0
 10
25.230194
 20
55.602402
 30
0.0
 10
25.630751
 20
55.602402
 30
0.0
 10
25.955776
 20
55.790201
 30
0.0
  0
SPLINE
  5
107
100
AcDbEntity
  8
0
 62
7
100
AcDbSpline
 70
8
 71
3
 72
8
 73
4
 74
0
 40
0
 40
0
 40
0
 40
0
 40
1
 40
1
 40
1
 40
1
 10
25.955776
 20
55.790201
 30
0.0
 10
26.280802
 20
55.977999
 30
0.0
 10
26.480848
 20
56.325026
 30
0.0
 10
26.480472
 20
56.700405
 30
0.0
  0
LWPOLYLINE
  5
108
100
AcDbEntity
  8
0
 62
7
100
AcDbPolyline
 90
2
 70
0
 10
-19.419406
 20
3.478419
 30
0.0
 10
-19.313725
 20
77.421905
 30
0.0
  0
SPLINE
  5
109
100
AcDbEntity
  8
0
 62
7
100
AcDbSpline
 70
8
 71
3
 72
8
 73
4
 74
0
 40
0
 40
0
 40
0
 40
0
 40
1
 40
1
 40
1
 40
1
 10
26.551592
 20
18.541991
 30
0.0
 10
26.551968
 20
18.917371
 30
0.0
 10
26.351922
 20
19.264397
 30
0.0
 10
26.026896
 20
19.452196
 30
0.0
  0
SPLINE
  5
10a
100
AcDbEntity
  8
0
 62
7
100
AcDbSpline
 70
8
 71
3
 72
8
 73
4
 74
0
 40
0
 40
0
 40
0
 40
0
 40
1
 40
1
 40
1
 40
1
 10
26.026896
 20
19.452196
 30
0.0
 10
25.701871
 20
19.639994
 30
0.0
 10
25.301314
 20
19.639994
 30
0.0
 10
24.976288
 20
19.452196
 30
0.0
  0
SPLINE
  5
10b
100
AcDbEntity
  8
0
 62
7
100
AcDbSpline
 70
8
 71
3
 72
8
 73
4
 74
0
 40
0
 40
0
 40
0
 40
0
 40
1
 40
1
 40
1
 40
1
 10
24.976288
 20
19.452196
 30
0.0
 10
24.651263
 20
19.264397
 30
0.0
 10
24.451216
 20
18.917371
 30
0.0
 10
24.451593
 20
18.541991
 30
0.0
  0
SPLINE
  5
10c
100
AcDbEntity
  8
0
 62
7
100
AcDbSpline
 70
8
 71
3
 72
8
 73
4
 74
0
 40
0
 40
0
 40
0
 40
0
 40
1
 40
1
 40
1
 40
1
 10
24.451593
 20
18.541991
 30
0.0
 10
24.451216
 20
18.166611
 30
0.0
 10
24.651263
 20
17.819585
 30
0.0
 10
24.976288
 20
17.631786
 30
0.0
  0
SPLINE
  5
10d
100
AcDbEntity
  8
0
 62
7
100
AcDbSpline
 70
8
 71
3
 72
8
 73
4
 74
0
 40
0
 40
0
 40
0
 40
0
 40
1
 40
1
 40
1
 40
1
 10
24.976288
 20
17.631786
 30
0.0
 10
25.301314
 20
17.443987
 30
0.0
 10
25.701871
 20
17.443987
 30
0.0
 10
26.026896
 20
17.631786
 30
0.0
  0
SPLINE
  5
10e
100
AcDbEntity
  8
0
 62
7
100
AcDbSpline
 70
8
 71
3
 72
8
 73
4
 74
0
 40
0
 40
0
 40
0
 40
0
 40
1
 40
1
 40
1
 40
1
 10
26.026896
 20
17.631786
 30
0.0
 10
26.351922
 20
17.819585
 30
0.0
 10
26.551968
 20
18.166611
 30
0.0
 10
26.551592
 20
18.541991
 30
0.0
  0
LWPOLYLINE
  5
10f
100
AcDbEntity
  8
0
 62
7
100
AcDbPolyline
 90
1
 70
1
 10
26.480472
 20
56.700405
 30
0.0
  0
SPLINE
  5
110
100
AcDbEntity
  8
0
 62
7
100
AcDbSpline
 70
8
 71
3
 72
8
 73
4
 74
0
 40
0
 40
0
 40
0
 40
0
 40
1
 40
1
 40
1
 40
1
 10
1.050000
 20
-0.000004
 30
0.0
 10
1.050000
 20
0.375125
 30
0.0
 10
0.849871
 20
0.721758
 30
0.0
 10
0.525000
 20
0.909322
 30
0.0
  0
SPLINE
  5
111
100
AcDbEntity
  8
0
 62
7
100
AcDbSpline
 70
8
 71
3
 72
8
 73
4
 74
0
 40
0
 40
0
 40
0
 40
0
 40
1
 40
1
 40
1
 40
1
 10
0.525000
 20
0.909322
 30
0.0
 10
0.200129
 20
1.096887
 30
0.0
 10
-0.200129
 20
1.096887
 30
0.0
 10
-0.525000
 20
0.909322
 30
0.0
  0
SPLINE
  5
112
100
AcDbEntity
  8
0
 62
7
100
AcDbSpline
 70
8
 71
3
 72
8
 73
4
 74
0
 40
0
 40
0
 40
0
 40
0
 40
1
 40
1
 40
1
 40
1
 10
-0.525000
 20
0.909322
 30
0.0
 10
-0.849871
 20
0.721758
 30
0.0
 10
-1.050000
 20
0.375125
 30
0.0
 10
-1.050000
 20
-0.000004
 30
0.0
  0
SPLINE
  5
113
100
AcDbEntity
  8
0
 62
7
100
AcDbSpline
 70
8
 71
3
 72
8
 73
4
 74
0
 40
0
 40
0
 40
0
 40
0
 40
1
 40
1
 40
1
 40
1
 10
-1.050000
 20
-0.000004
 30
0.0
 10
-1.050000
 20
-0.375133
 30
0.0
 10
-0.849871
 20
-0.721766
 30
0.0
 10
-0.525000
 20
-0.909330
 30
0.0
  0
SPLINE
  5
114
100
AcDbEntity
  8
0
 62
7
100
AcDbSpline
 70
8
 71
3
 72
8
 73
4
 74
0
 40
0
 40
0
 40
0
 40
0
 40
1
 40
1
 40
1
 40
1
 10
-0.525000
 20
-0.909330
 30
0.0
 10
-0.200129
 20
-1.096895
 30
0.0
 10
0.200129
 20
-1.096895
 30
0.0
 10
0.525000
 20
-0.909330
 30
0.0
  0
SPLINE
  5
115
100
AcDbEntity
  8
0
 62
7
100
AcDbSpline
 70
8
 71
3
 72
8
 73
4
 74
0
 40
0
 40
0
 40
0
 40
0
 40
1
 40
1
 40
1
 40
1
 10
0.525000
 20
-0.909330
 30
0.0
 10
0.849871
 20
-0.721766
 30
0.0
 10
1.050000
 20
-0.375133
 30
0.0
 10
1.050000
 20
-0.000004
 30
0.0
  0
LWPOLYLINE
  5
116
100
AcDbEntity
  8
0
 62
7
100
AcDbPolyline
 90
1
 70
1
 10
26.551592
 20
18.541991
 30
0.0
  0
SPLINE
  5
117
100
AcDbEntity
  8
0
 62
7
100
AcDbSpline
 70
8
 71
3
 72
8
 73
4
 74
0
 40
0
 40
0
 40
0
 40
0
 40
1
 40
1
 40
1
 40
1
 10
101.855072
 20
14.109507
 30
0.0
 10
101.855072
 20
14.484636
 30
0.0
 10
101.654943
 20
14.831269
 30
0.0
 10
101.330072
 20
15.018834
 30
0.0
  0
SPLINE
  5
118
100
AcDbEntity
  8
0
 62
7
100
AcDbSpline
 70
8
 71
3
 72
8
 73
4
 74
0
 40
0
 40
0
 40
0
 40
0
 40
1
 40
1
 40
1
 40
1
 10
101.330072
 20
15.018834
 30
0.0
 10
101.005201
 20
15.206398
 30
0.0
 10
100.604943
 20
15.206398
 30
0.0
 10
100.280072
 20
15.018834
 30
0.0
  0
SPLINE
  5
119
100
AcDbEntity
  8
0
 62
7
100
AcDbSpline
 70
8
 71
3
 72
8
 73
4
 74
0
 40
0
 40
0
 40
0
 40
0
 40
1
 40
1
 40
1
 40
1
 10
100.280072
 20
15.018834
 30
0.0
 10
99.955201
 20
14.831269
 30
0.0
 10
99.755072
 20
14.484636
 30
0.0
 10
99.755072
 20
14.109507
 30
0.0
  0
SPLINE
  5
11a
100
AcDbEntity
  8
0
 62
7
100
AcDbSpline
 70
8
 71
3
 72
8
 73
4
 74
0
 40
0
 40
0
 40
0
 40
0
 40
1
 40
1
 40
1
 40
1
 10
99.755072
 20
14.109507
 30
0.0
 10
99.755072
 20
13.734378
 30
0.0
 10
99.955201
 20
13.387745
 30
0.0
 10
100.280072
 20
13.200180
 30
0.0
  0
SPLINE
  5
11b
100
AcDbEntity
  8
0
 62
7
100
AcDbSpline
 70
8
 71
3
 72
8
 73
4
 74
0
 40
0
 40
0
 40
0
 40
0
 40
1
 40
1
 40
1
 40
1
 10
100.280072
 20
13.200180
 30
0.0
 10
100.604943
 20
13.012616
 30
0.0
 10
101.005201
 20
13.012616
 30
0.0
 10
101.330072
 20
13.200180
 30
0.0
  0
SPLINE
  5
11c
100
AcDbEntity
  8
0
 62
7
100
AcDbSpline
 70
8
 71
3
 72
8
 73
4
 74
0
 40
0
 40
0
 40
0
 40
0
 40
1
 40
1
 40
1
 40
1
 10
101.330072
 20
13.200180
 30
0.0
 10
101.654943
 20
13.387745
 30
0.0
 10
101.855072
 20
13.734378
 30
0.0
 10
101.855072
 20
14.109507
 30
0.0
  0
LWPOLYLINE
  5
11d
100
AcDbEntity
  8
0
 62
7
100
AcDbPolyline
 90
1
 70
1
 10
1.050000
 20
-0.000004
 30
0.0
  0
SPLINE
  5
11e
100
AcDbEntity
  8
0
 62
7
100
AcDbSpline
 70
8
 71
3
 72
8
 73
4
 74
0
 40
0
 40
0
 40
0
 40
0
 40
1
 40
1
 40
1
 40
1
 10
101.855072
 20
52.309485
 30
0.0
 10
101.855072
 20
52.684614
 30
0.0
 10
101.654943
 20
53.031247
 30
0.0
 10
101.330072
 20
53.218812
 30
0.0
  0
SPLINE
  5
11f
100
AcDbEntity
  8
0
 62
7
100
AcDbSpline
 70
8
 71
3
 72
8
 73
4
 74
0
 40
0
 40
0
 40
0
 40
0
 40
1
 40
1
 40
1
 40
1
 10
101.330072
 20
53.218812
 30
0.0
 10
101.005201
 20
53.406376
 30
0.0
 10
100.604943
 20
53.406376
 30
0.0
 10
100.280072
 20
53.218812
 30
0.0
  0
SPLINE
  5
120
100
AcDbEntity
  8
0
 62
7
100
AcDbSpline
 70
8
 71
3
 72
8
 73
4
 74
0
 40
0
 40
0
 40
0
 40
0
 40
1
 40
1
 40
1
 40
1
 10
100.280072
 20
53.218812
 30
0.0
 10
99.955201
 20
53.031247
 30
0.0
 10
99.755072
 20
52.684614
 30
0.0
 10
99.755072
 20
52.309485
 30
0.0
  0
SPLINE
  5
121
100
AcDbEntity
  8
0
 62
7
100
AcDbSpline
 70
8
 71
3
 72
8
 73
4
 74
0
 40
0
 40
0
 40
0
 40
0
 40
1
 40
1
 40
1
 40
1
 10
99.755072
 20
52.309485
 30
0.0
 10
99.755072
 20
51.934356
 30
0.0
 10
99.955201
 20
51.587723
 30
0.0
 10
100.280072
 20
51.400158
 30
0.0
  0
SPLINE
  5
122
100
AcDbEntity
  8
0
 62
7
100
AcDbSpline
 70
8
 71
3
 72
8
 73
4
 74
0
 40
0
 40
0
 40
0
 40
0
 40
1
 40
1
 40
1
 40
1
 10
100.280072
 20
51.400158
 30
0.0
 10
100.604943
 20
51.212594
 30
0.0
 10
101.005201
 20
51.212594
 30
0.0
 10
101.330072
 20
51.400158
 30
0.0
  0
SPLINE
  5
123
100
AcDbEntity
  8
0
 62
7
100
AcDbSpline
 70
8
 71
3
 72
8
 73
4
 74
0
 40
0
 40
0
 40
0
 40
0
 40
1
 40
1
 40
1
 40
1
 10
101.330072
 20
51.400158
 30
0.0
 10
101.654943
 20
51.587723
 30
0.0
 10
101.855072
 20
51.934356
 30
0.0
 10
101.855072
 20
52.309485
 30
0.0
  0
LWPOLYLINE
  5
124
100
AcDbEntity
  8
0
 62
7
100
AcDbPolyline
 90
1
 70
1
 10
101.855072
 20
14.109507
 30
0.0
  0
LWPOLYLINE
  5
125
100
AcDbEntity
  8
0
 62
7
100
AcDbPolyline
 90
1
 70
1
 10
101.855072
 20
52.309485
 30
0.0
  0
LWPOLYLINE
  5
126
100
AcDbEntity
  8
0
 62
7
100
AcDbPolyline
 90
2
 70
0
 10
125.109427
 20
-7.845744
 30
0.0
 10
125.548984
 20
-7.884109
 30
0.0
  0
LWPOLYLINE
  5
127
100
AcDbEntity
  8
0
 62
7
100
AcDbPolyline
 90
2
 70
0
 10
170.771656
 20
-20.361564
 30
0.0
 10
170.815124
 20
-20.761482
 30
0.0
  0
LWPOLYLINE
  5
128
100
AcDbEntity
  8
0
 62
7
100
AcDbPolyline
 90
2
 70
0
 10
172.000870
 20
79.222299
 30
0.0
 10
125.730790
 20
72.261134
 30
0.0
  0
SPLINE
  5
129
100
AcDbEntity
  8
0
 62
7
100
AcDbSpline
 70
8
 71
3
 72
8
 73
4
 74
0
 40
0
 40
0
 40
0
 40
0
 40
1
 40
1
 40
1
 40
1
 10
144.764635
 20
14.109507
 30
0.0
 10
144.764635
 20
14.484636
 30
0.0
 10
144.564506
 20
14.831269
 30
0.0
 10
144.239635
 20
15.018834
 30
0.0
  0
SPLINE
  5
12a
100
AcDbEntity
  8
0
 62
7
100
AcDbSpline
 70
8
 71
3
 72
8
 73
4
 74
0
 40
0
 40
0
 40
0
 40
0
 40
1
 40
1
 40
1
 40
1
 10
144.239635
 20
15.018834
 30
0.0
 10
143.914764
 20
15.206398
 30
0.0
 10
143.514506
 20
15.206398
 30
0.0
 10
143.189635
 20
15.018834
 30
0.0
  0
SPLINE
  5
12b
100
AcDbEntity
  8
0
 62
7
100
AcDbSpline
 70
8
 71
3
 72
8
 73
4
 74
0
 40
0
 40
0
 40
0
 40
0
 40
1
 40
1
 40
1
 40
1
 10
143.189635
 20
15.018834
 30
0.0
 10
142.864764
 20
14.831269
 30
0.0
 10
142.664635
 20
14.484636
 30
0.0
 10
142.664635
 20
14.109507
 30
0.0
  0
SPLINE
  5
12c
100
AcDbEntity
  8
0
 62
7
100
AcDbSpline
 70
8
 71
3
 72
8
 73
4
 74
0
 40
0
 40
0
 40
0
 40
0
 40
1
 40
1
 40
1
 40
1
 10
142.664635
 20
14.109507
 30
0.0
 10
142.664635
 20
13.734378
 30
0.0
 10
142.864764
 20
13.387745
 30
0.0
 10
143.189635
 20
13.200180
 30
0.0
  0
SPLINE
  5
12d
100
AcDbEntity
  8
0
 62
7
100
AcDbSpline
 70
8
 71
3
 72
8
 73
4
 74
0
 40
0
 40
0
 40
0
 40
0
 40
1
 40
1
 40
1
 40
1
 10
143.189635
 20
13.200180
 30
0.0
 10
143.514506
 20
13.012616
 30
0.0
 10
143.914764
 20
13.012616
 30
0.0
 10
144.239635
 20
13.200180
 30
0.0
  0
SPLINE
  5
12e
100
AcDbEntity
  8
0
 62
7
100
AcDbSpline
 70
8
 71
3
 72
8
 73
4
 74
0
 40
0
 40
0
 40
0
 40
0
 40
1
 40
1
 40
1
 40
1
 10
144.239635
 20
13.200180
 30
0.0
 10
144.564506
 20
13.387745
 30
0.0
 10
144.764635
 20
13.734378
 30
0.0
 10
144.764635
 20
14.109507
 30
0.0
  0
LWPOLYLINE
  5
12f
100
AcDbEntity
  8
0
 62
7
100
AcDbPolyline
 90
2
 70
0
 10
263.402821
 20
-1.450608
 30
0.0
 10
263.672574
 20
-0.108801
 30
0.0
  0
LWPOLYLINE
  5
130
100
AcDbEntity
  8
0
 62
7
100
AcDbPolyline
 90
1
 70
1
 10
144.764635
 20
14.109507
 30
0.0
  0
LWPOLYLINE
  5
131
100
AcDbEntity
  8
0
 62
7
100
AcDbPolyline
 90
2
 70
0
 10
171.161313
 20
-21.584151
 30
0.0
 10
171.442454
 20
-21.924987
 30
0.0
  0
LWPOLYLINE
  5
132
100
AcDbEntity
  8
0
 62
7
100
AcDbPolyline
 90
2
 70
0
 10
247.045180
 20
-30.040787
 30
0.0
 10
247.356690
 20
-29.885424
 30
0.0
  0
LWPOLYLINE
  5
133
100
AcDbEntity
  8
0
 62
7
100
AcDbPolyline
 90
2
 70
0
 10
170.948659
 20
-21.192118
 30
0.0
 10
171.161313
 20
-21.584151
 30
0.0
  0
LWPOLYLINE
  5
134
100
AcDbEntity
  8
0
 62
7
100
AcDbPolyline
 90
2
 70
0
 10
173.031485
 20
-22.595785
 30
0.0
 10
233.230040
 20
-22.595785
 30
0.0
  0
LWPOLYLINE
  5
135
100
AcDbEntity
  8
0
 62
7
100
AcDbPolyline
 90
2
 70
0
 10
171.442454
 20
-21.924987
 30
0.0
 10
171.783274
 20
-22.206106
 30
0.0
  0
LWPOLYLINE
  5
136
100
AcDbEntity
  8
0
 62
7
100
AcDbPolyline
 90
2
 70
0
 10
263.833430
 20
77.421905
 30
0.0
 10
263.798492
 20
77.763339
 30
0.0
  0
LWPOLYLINE
  5
137
100
AcDbEntity
  8
0
 62
7
100
AcDbPolyline
 90
2
 70
0
 10
125.548984
 20
-7.884109
 30
0.0
 10
168.005223
 20
-7.884135
 30
0.0
  0
LWPOLYLINE
  5
138
100
AcDbEntity
  8
0
 62
7
100
AcDbPolyline
 90
2
 70
0
 10
170.815124
 20
-20.761482
 30
0.0
 10
170.948659
 20
-21.192118
 30
0.0
  0
LWPOLYLINE
  5
139
100
AcDbEntity
  8
0
 62
7
100
AcDbPolyline
 90
2
 70
0
 10
246.698682
 20
-30.109526
 30
0.0
 10
247.045180
 20
-30.040787
 30
0.0
  0
LWPOLYLINE
  5
13a
100
AcDbEntity
  8
0
 62
7
100
AcDbPolyline
 90
2
 70
0
 10
233.230040
 20
-22.595785
 30
0.0
 10
245.787725
 20
-29.865395
 30
0.0
  0
LWPOLYLINE
  5
13b
100
AcDbEntity
  8
0
 62
7
100
AcDbPolyline
 90
2
 70
0
 10
263.113489
 20
-2.549978
 30
0.0
 10
263.402821
 20
-1.450608
 30
0.0
  0
LWPOLYLINE
  5
13c
100
AcDbEntity
  8
0
 62
7
100
AcDbPolyline
 90
2
 70
0
 10
263.525886
 20
78.410676
 30
0.0
 10
263.303769
 20
78.679773
 30
0.0
  0
LWPOLYLINE
  5
13d
100
AcDbEntity
  8
0
 62
7
100
AcDbPolyline
 90
2
 70
0
 10
247.799603
 20
-29.427298
 30
0.0
 10
262.509268
 20
-3.921128
 30
0.0
  0
LWPOLYLINE
  5
13e
100
AcDbEntity
  8
0
 62
7
100
AcDbPolyline
 90
2
 70
0
 10
123.311690
 20
-6.056526
 30
0.0
 10
123.443931
 20
-6.483008
 30
0.0
  0
LWPOLYLINE
  5
13f
100
AcDbEntity
  8
0
 62
7
100
AcDbPolyline
 90
2
 70
0
 10
262.048321
 20
79.211080
 30
0.0
 10
172.000870
 20
79.222299
 30
0.0
  0
LWPOLYLINE
  5
140
100
AcDbEntity
  8
0
 62
7
100
AcDbPolyline
 90
2
 70
0
 10
172.609028
 20
-22.553266
 30
0.0
 10
173.031485
 20
-22.595785
 30
0.0
  0
LWPOLYLINE
  5
141
100
AcDbEntity
  8
0
 62
7
100
AcDbPolyline
 90
3
 70
0
 10
123.259852
 20
69.365072
 30
0.0
 10
123.259823
 20
-5.623033
 30
0.0
 10
123.311690
 20
-6.056526
 30
0.0
  0
LWPOLYLINE
  5
142
100
AcDbEntity
  8
0
 62
7
100
AcDbPolyline
 90
2
 70
0
 10
123.656587
 20
-6.875068
 30
0.0
 10
123.937731
 20
-7.215877
 30
0.0
  0
LWPOLYLINE
  5
143
100
AcDbEntity
  8
0
 62
7
100
AcDbPolyline
 90
2
 70
0
 10
263.303769
 20
78.679773
 30
0.0
 10
263.033571
 20
78.902507
 30
0.0
  0
LWPOLYLINE
  5
144
100
AcDbEntity
  8
0
 62
7
100
AcDbPolyline
 90
2
 70
0
 10
262.722008
 20
79.071343
 30
0.0
 10
262.377672
 20
79.177973
 30
0.0
  0
LWPOLYLINE
  5
145
100
AcDbEntity
  8
0
 62
7
100
AcDbPolyline
 90
3
 70
0
 10
125.730790
 20
72.261134
 30
0.0
 10
124.807818
 20
71.816592
 30
0.0
 10
124.005400
 20
71.114512
 30
0.0
  0
LWPOLYLINE
  5
146
100
AcDbEntity
  8
0
 62
7
100
AcDbPolyline
 90
2
 70
0
 10
246.039793
 20
-29.993797
 30
0.0
 10
246.355200
 20
-30.087592
 30
0.0
  0
LWPOLYLINE
  5
147
100
AcDbEntity
  8
0
 62
7
100
AcDbPolyline
 90
2
 70
0
 10
172.175312
 20
-22.418779
 30
0.0
 10
172.609028
 20
-22.553266
 30
0.0
  0
LWPOLYLINE
  5
148
100
AcDbEntity
  8
0
 62
7
100
AcDbPolyline
 90
2
 70
0
 10
263.871165
 20
2.234878
 30
0.0
 10
263.939113
 20
3.478419
 30
0.0
  0
LWPOLYLINE
  5
149
100
AcDbEntity
  8
0
 62
7
100
AcDbPolyline
 90
2
 70
0
 10
263.805390
 20
1.393715
 30
0.0
 10
263.871165
 20
2.234878
 30
0.0
  0
LWPOLYLINE
  5
14a
100
AcDbEntity
  8
0
 62
7
100
AcDbPolyline
 90
2
 70
0
 10
168.005223
 20
-7.884135
 30
0.0
 10
168.591080
 20
-7.943111
 30
0.0
  0
LWPOLYLINE
  5
14b
100
AcDbEntity
  8
0
 62
7
100
AcDbPolyline
 90
2
 70
0
 10
262.509268
 20
-3.921128
 30
0.0
 10
263.113489
 20
-2.549978
 30
0.0
  0
SPLINE
  5
14c
100
AcDbEntity
  8
0
 62
7
100
AcDbSpline
 70
8
 71
3
 72
8
 73
4
 74
0
 40
0
 40
0
 40
0
 40
0
 40
1
 40
1
 40
1
 40
1
 10
245.569705
 20
-0.000004
 30
0.0
 10
245.569705
 20
0.375125
 30
0.0
 10
245.369577
 20
0.721758
 30
0.0
 10
245.044705
 20
0.909323
 30
0.0
  0
SPLINE
  5
14d
100
AcDbEntity
  8
0
 62
7
100
AcDbSpline
 70
8
 71
3
 72
8
 73
4
 74
0
 40
0
 40
0
 40
0
 40
0
 40
1
 40
1
 40
1
 40
1
 10
245.044705
 20
0.909323
 30
0.0
 10
244.719834
 20
1.096887
 30
0.0
 10
244.319577
 20
1.096887
 30
0.0
 10
243.994706
 20
0.909323
 30
0.0
  0
SPLINE
  5
14e
100
AcDbEntity
  8
0
 62
7
100
AcDbSpline
 70
8
 71
3
 72
8
 73
4
 74
0
 40
0
 40
0
 40
0
 40
0
 40
1
 40
1
 40
1
 40
1
 10
243.994706
 20
0.909323
 30
0.0
 10
243.669834
 20
0.721758
 30
0.0
 10
243.469706
 20
0.375125
 30
0.0
 10
243.469706
 20
-0.000004
 30
0.0
  0
SPLINE
  5
14f
100
AcDbEntity
  8
0
 62
7
100
AcDbSpline
 70
8
 71
3
 72
8
 73
4
 74
0
 40
0
 40
0
 40
0
 40
0
 40
1
 40
1
 40
1
 40
1
 10
243.469706
 20
-0.000004
 30
0.0
 10
243.469706
 20
-0.375133
 30
0.0
 10
243.669834
 20
-0.721766
 30
0.0
 10
243.994706
 20
-0.909331
 30
0.0
  0
SPLINE
  5
150
100
AcDbEntity
  8
0
 62
7
100
AcDbSpline
 70
8
 71
3
 72
8
 73
4
 74
0
 40
0
 40
0
 40
0
 40
0
 40
1
 40
1
 40
1
 40
1
 10
243.994706
 20
-0.909331
 30
0.0
 10
244.319577
 20
-1.096895
 30
0.0
 10
244.719834
 20
-1.096895
 30
0.0
 10
245.044705
 20
-0.909331
 30
0.0
  0
SPLINE
  5
151
100
AcDbEntity
  8
0
 62
7
100
AcDbSpline
 70
8
 71
3
 72
8
 73
4
 74
0
 40
0
 40
0
 40
0
 40
0
 40
1
 40
1
 40
1
 40
1
 10
245.044705
 20
-0.909331
 30
0.0
 10
245.369577
 20
-0.721766
 30
0.0
 10
245.569705
 20
-0.375133
 30
0.0
 10
245.569705
 20
-0.000004
 30
0.0
  0
LWPOLYLINE
  5
152
100
AcDbEntity
  8
0
 62
7
100
AcDbPolyline
 90
2
 70
0
 10
171.783274
 20
-22.206106
 30
0.0
 10
172.175312
 20
-22.418779
 30
0.0
  0
LWPOLYLINE
  5
153
100
AcDbEntity
  8
0
 62
7
100
AcDbPolyline
 90
1
 70
1
 10
245.569705
 20
-0.000004
 30
0.0
  0
LWPOLYLINE
  5
154
100
AcDbEntity
  8
0
 62
7
100
AcDbPolyline
 90
2
 70
0
 10
247.356690
 20
-29.885424
 30
0.0
 10
247.609518
 20
-29.670159
 30
0.0
  0
LWPOLYLINE
  5
155
100
AcDbEntity
  8
0
 62
7
100
AcDbPolyline
 90
2
 70
0
 10
123.443931
 20
-6.483008
 30
0.0
 10
123.656587
 20
-6.875068
 30
0.0
  0
LWPOLYLINE
  5
156
100
AcDbEntity
  8
0
 62
7
100
AcDbPolyline
 90
2
 70
0
 10
169.096219
 20
-8.099744
 30
0.0
 10
169.553543
 20
-8.347791
 30
0.0
  0
LWPOLYLINE
  5
157
100
AcDbEntity
  8
0
 62
7
100
AcDbPolyline
 90
2
 70
0
 10
245.787725
 20
-29.865395
 30
0.0
 10
246.039793
 20
-29.993797
 30
0.0
  0
SPLINE
  5
158
100
AcDbEntity
  8
0
 62
7
100
AcDbSpline
 70
8
 71
3
 72
8
 73
4
 74
0
 40
0
 40
0
 40
0
 40
0
 40
1
 40
1
 40
1
 40
1
 10
220.068113
 20
18.541991
 30
0.0
 10
220.068113
 20
18.917120
 30
0.0
 10
219.867984
 20
19.263753
 30
0.0
 10
219.543113
 20
19.451318
 30
0.0
  0
SPLINE
  5
159
100
AcDbEntity
  8
0
 62
7
100
AcDbSpline
 70
8
 71
3
 72
8
 73
4
 74
0
 40
0
 40
0
 40
0
 40
0
 40
1
 40
1
 40
1
 40
1
 10
219.543113
 20
19.451318
 30
0.0
 10
219.218242
 20
19.638882
 30
0.0
 10
218.817984
 20
19.638882
 30
0.0
 10
218.493113
 20
19.451318
 30
0.0
  0
SPLINE
  5
15a
100
AcDbEntity
  8
0
 62
7
100
AcDbSpline
 70
8
 71
3
 72
8
 73
4
 74
0
 40
0
 40
0
 40
0
 40
0
 40
1
 40
1
 40
1
 40
1
 10
218.493113
 20
19.451318
 30
0.0
 10
218.168242
 20
19.263753
 30
0.0
 10
217.968113
 20
18.917120
 30
0.0
 10
217.968113
 20
18.541991
 30
0.0
  0
SPLINE
  5
15b
100
AcDbEntity
  8
0
 62
7
100
AcDbSpline
 70
8
 71
3
 72
8
 73
4
 74
0
 40
0
 40
0
 40
0
 40
0
 40
1
 40
1
 40
1
 40
1
 10
217.968113
 20
18.541991
 30
0.0
 10
217.968113
 20
18.166862
 30
0.0
 10
218.168242
 20
17.820229
 30
0.0
 10
218.493113
 20
17.632664
 30
0.0
  0
SPLINE
  5
15c
100
AcDbEntity
  8
0
 62
7
100
AcDbSpline
 70
8
 71
3
 72
8
 73
4
 74
0
 40
0
 40
0
 40
0
 40
0
 40
1
 40
1
 40
1
 40
1
 10
218.493113
 20
17.632664
 30
0.0
 10
218.817984
 20
17.445100
 30
0.0
 10
219.218242
 20
17.445100
 30
0.0
 10
219.543113
 20
17.632664
 30
0.0
  0
SPLINE
  5
15d
100
AcDbEntity
  8
0
 62
7
100
AcDbSpline
 70
8
 71
3
 72
8
 73
4
 74
0
 40
0
 40
0
 40
0
 40
0
 40
1
 40
1
 40
1
 40
1
 10
219.543113
 20
17.632664
 30
0.0
 10
219.867984
 20
17.820229
 30
0.0
 10
220.068113
 20
18.166862
 30
0.0
 10
220.068113
 20
18.541991
 30
0.0
  0
LWPOLYLINE
  5
15e
100
AcDbEntity
  8
0
 62
7
100
AcDbPolyline
 90
2
 70
0
 10
169.553543
 20
-8.347791
 30
0.0
 10
169.952564
 20
-8.676959
 30
0.0
  0
LWPOLYLINE
  5
15f
100
AcDbEntity
  8
0
 62
7
100
AcDbPolyline
 90
1
 70
1
 10
220.068113
 20
18.541991
 30
0.0
  0
LWPOLYLINE
  5
160
100
AcDbEntity
  8
0
 62
7
100
AcDbPolyline
 90
2
 70
0
 10
124.670584
 20
-7.709669
 30
0.0
 10
125.109427
 20
-7.845744
 30
0.0
  0
LWPOLYLINE
  5
161
100
AcDbEntity
  8
0
 62
7
100
AcDbPolyline
 90
2
 70
0
 10
263.672574
 20
-0.108801
 30
0.0
 10
263.805390
 20
1.393715
 30
0.0
  0
LWPOLYLINE
  5
162
100
AcDbEntity
  8
0
 62
7
100
AcDbPolyline
 90
2
 70
0
 10
247.609518
 20
-29.670159
 30
0.0
 10
247.799603
 20
-29.427298
 30
0.0
  0
LWPOLYLINE
  5
163
100
AcDbEntity
  8
0
 62
7
100
AcDbPolyline
 90
2
 70
0
 10
262.377672
 20
79.177973
 30
0.0
 10
262.048321
 20
79.211080
 30
0.0
  0
LWPOLYLINE
  5
164
100
AcDbEntity
  8
0
 62
7
100
AcDbPolyline
 90
2
 70
0
 10
168.591080
 20
-7.943111
 30
0.0
 10
169.096219
 20
-8.099744
 30
0.0
  0
LWPOLYLINE
  5
165
100
AcDbEntity
  8
0
 62
7
100
AcDbPolyline
 90
2
 70
0
 10
170.529782
 20
-9.533309
 30
0.0
 10
170.690550
 20
-10.051787
 30
0.0
  0
LWPOLYLINE
  5
166
100
AcDbEntity
  8
0
 62
7
100
AcDbPolyline
 90
3
 70
0
 10
263.798492
 20
77.763339
 30
0.0
 10
263.693241
 20
78.102384
 30
0.0
 10
263.525886
 20
78.410676
 30
0.0
  0
SPLINE
  5
167
100
AcDbEntity
  8
0
 62
7
100
AcDbSpline
 70
8
 71
3
 72
8
 73
4
 74
0
 40
0
 40
0
 40
0
 40
0
 40
1
 40
1
 40
1
 40
1
 10
144.764635
 20
52.309485
 30
0.0
 10
144.764635
 20
52.684614
 30
0.0
 10
144.564506
 20
53.031247
 30
0.0
 10
144.239635
 20
53.218812
 30
0.0
  0
SPLINE
  5
168
100
AcDbEntity
  8
0
 62
7
100
AcDbSpline
 70
8
 71
3
 72
8
 73
4
 74
0
 40
0
 40
0
 40
0
 40
0
 40
1
 40
1
 40
1
 40
1
 10
144.239635
 20
53.218812
 30
0.0
 10
143.914764
 20
53.406376
 30
0.0
 10
143.514506
 20
53.406376
 30
0.0
 10
143.189635
 20
53.218812
 30
0.0
  0
SPLINE
  5
169
100
AcDbEntity
  8
0
 62
7
100
AcDbSpline
 70
8
 71
3
 72
8
 73
4
 74
0
 40
0
 40
0
 40
0
 40
0
 40
1
 40
1
 40
1
 40
1
 10
143.189635
 20
53.218812
 30
0.0
 10
142.864764
 20
53.031247
 30
0.0
 10
142.664635
 20
52.684614
 30
0.0
 10
142.664635
 20
52.309485
 30
0.0
  0
SPLINE
  5
16a
100
AcDbEntity
  8
0
 62
7
100
AcDbSpline
 70
8
 71
3
 72
8
 73
4
 74
0
 40
0
 40
0
 40
0
 40
0
 40
1
 40
1
 40
1
 40
1
 10
142.664635
 20
52.309485
 30
0.0
 10
142.664635
 20
51.934356
 30
0.0
 10
142.864764
 20
51.587723
 30
0.0
 10
143.189635
 20
51.400158
 30
0.0
  0
SPLINE
  5
16b
100
AcDbEntity
  8
0
 62
7
100
AcDbSpline
 70
8
 71
3
 72
8
 73
4
 74
0
 40
0
 40
0
 40
0
 40
0
 40
1
 40
1
 40
1
 40
1
 10
143.189635
 20
51.400158
 30
0.0
 10
143.514506
 20
51.212594
 30
0.0
 10
143.914764
 20
51.212594
 30
0.0
 10
144.239635
 20
51.400158
 30
0.0
  0
SPLINE
  5
16c
100
AcDbEntity
  8
0
 62
7
100
AcDbSpline
 70
8
 71
3
 72
8
 73
4
 74
0
 40
0
 40
0
 40
0
 40
0
 40
1
 40
1
 40
1
 40
1
 10
144.239635
 20
51.400158
 30
0.0
 10
144.564506
 20
51.587723
 30
0.0
 10
144.764635
 20
51.934356
 30
0.0
 10
144.764635
 20
52.309485
 30
0.0
  0
LWPOLYLINE
  5
16d
100
AcDbEntity
  8
0
 62
7
100
AcDbPolyline
 90
2
 70
0
 10
170.690550
 20
-10.051787
 30
0.0
 10
170.770518
 20
-10.640855
 30
0.0
  0
LWPOLYLINE
  5
16e
100
AcDbEntity
  8
0
 62
7
100
AcDbPolyline
 90
1
 70
1
 10
144.764635
 20
52.309485
 30
0.0
  0
LWPOLYLINE
  5
16f
100
AcDbEntity
  8
0
 62
7
100
AcDbPolyline
 90
2
 70
0
 10
123.937731
 20
-7.215877
 30
0.0
 10
124.278548
 20
-7.497024
 30
0.0
  0
LWPOLYLINE
  5
170
100
AcDbEntity
  8
0
 62
7
100
AcDbPolyline
 90
2
 70
0
 10
263.033571
 20
78.902507
 30
0.0
 10
262.722008
 20
79.071343
 30
0.0
  0
LWPOLYLINE
  5
171
100
AcDbEntity
  8
0
 62
7
100
AcDbPolyline
 90
2
 70
0
 10
246.355200
 20
-30.087592
 30
0.0
 10
246.698682
 20
-30.109552
 30
0.0
  0
LWPOLYLINE
  5
172
100
AcDbEntity
  8
0
 62
7
100
AcDbPolyline
 90
2
 70
0
 10
170.770518
 20
-10.640855
 30
0.0
 10
170.771576
 20
-20.361564
 30
0.0
  0
LWPOLYLINE
  5
173
100
AcDbEntity
  8
0
 62
7
100
AcDbPolyline
 90
2
 70
0
 10
263.939113
 20
3.478419
 30
0.0
 10
263.833430
 20
77.421905
 30
0.0
  0
LWPOLYLINE
  5
174
100
AcDbEntity
  8
0
 62
7
100
AcDbPolyline
 90
2
 70
0
 10
169.952564
 20
-8.676959
 30
0.0
 10
170.281716
 20
-9.075977
 30
0.0
  0
LWPOLYLINE
  5
175
100
AcDbEntity
  8
0
 62
7
100
AcDbPolyline
 90
2
 70
0
 10
123.521142
 20
70.279586
 30
0.0
 10
123.259852
 20
69.365072
 30
0.0
  0
LWPOLYLINE
  5
176
100
AcDbEntity
  8
0
 62
7
100
AcDbPolyline
 90
2
 70
0
 10
124.278548
 20
-7.497024
 30
0.0
 10
124.670584
 20
-7.709669
 30
0.0
  0
LWPOLYLINE
  5
177
100
AcDbEntity
  8
0
 62
7
100
AcDbPolyline
 90
2
 70
0
 10
170.281716
 20
-9.075977
 30
0.0
 10
170.529782
 20
-9.533309
 30
0.0
  0
SPLINE
  5
178
100
AcDbEntity
  8
0
 62
7
100
AcDbSpline
 70
8
 71
3
 72
8
 73
4
 74
0
 40
0
 40
0
 40
0
 40
0
 40
1
 40
1
 40
1
 40
1
 10
220.139233
 20
56.700405
 30
0.0
 10
220.139233
 20
57.075534
 30
0.0
 10
219.939104
 20
57.422168
 30
0.0
 10
219.614233
 20
57.609732
 30
0.0
  0
SPLINE
  5
179
100
AcDbEntity
  8
0
 62
7
100
AcDbSpline
 70
8
 71
3
 72
8
 73
4
 74
0
 40
0
 40
0
 40
0
 40
0
 40
1
 40
1
 40
1
 40
1
 10
219.614233
 20
57.609732
 30
0.0
 10
219.289362
 20
57.797297
 30
0.0
 10
218.889104
 20
57.797297
 30
0.0
 10
218.564233
 20
57.609732
 30
0.0
  0
SPLINE
  5
17a
100
AcDbEntity
  8
0
 62
7
100
AcDbSpline
 70
8
 71
3
 72
8
 73
4
 74
0
 40
0
 40
0
 40
0
 40
0
 40
1
 40
1
 40
1
 40
1
 10
218.564233
 20
57.609732
 30
0.0
 10
218.239362
 20
57.422168
 30
0.0
 10
218.039233
 20
57.075534
 30
0.0
 10
218.039233
 20
56.700405
 30
0.0
  0
SPLINE
  5
17b
100
AcDbEntity
  8
0
 62
7
100
AcDbSpline
 70
8
 71
3
 72
8
 73
4
 74
0
 40
0
 40
0
 40
0
 40
0
 40
1
 40
1
 40
1
 40
1
 10
218.039233
 20
56.700405
 30
0.0
 10
218.039233
 20
56.325277
 30
0.0
 10
218.239362
 20
55.978643
 30
0.0
 10
218.564233
 20
55.791079
 30
0.0
  0
SPLINE
  5
17c
100
AcDbEntity
  8
0
 62
7
100
AcDbSpline
 70
8
 71
3
 72
8
 73
4
 74
0
 40
0
 40
0
 40
0
 40
0
 40
1
 40
1
 40
1
 40
1
 10
218.564233
 20
55.791079
 30
0.0
 10
218.889104
 20
55.603514
 30
0.0
 10
219.289362
 20
55.603514
 30
0.0
 10
219.614233
 20
55.791079
 30
0.0
  0
SPLINE
  5
17d
100
AcDbEntity
  8
0
 62
7
100
AcDbSpline
 70
8
 71
3
 72
8
 73
4
 74
0
 40
0
 40
0
 40
0
 40
0
 40
1
 40
1
 40
1
 40
1
 10
219.614233
 20
55.791079
 30
0.0
 10
219.939104
 20
55.978643
 30
0.0
 10
220.139233
 20
56.325277
 30
0.0
 10
220.139233
 20
56.700405
 30
0.0
  0
LWPOLYLINE
  5
17e
100
AcDbEntity
  8
0
 62
7
100
AcDbPolyline
 90
2
 70
0
 10
124.005400
 20
71.114512
 30
0.0
 10
123.521142
 20
70.279586
 30
0.0
  0
LWPOLYLINE
  5
17f
100
AcDbEntity
  8
0
 62
7
100
AcDbPolyline
 90
1
 70
1
 10
220.139233
 20
56.700405
 30
0.0
  0
ENDSEC
  0
SECTION
  2
OBJECTS
  0
DICTIONARY
  5
C
330
0
100
AcDbDictionary
  3
ACAD_GROUP
350
D
  3
ACAD_MLINESTYLE
350
17
  0
DICTIONARY
  5
D
330
C
100
AcDbDictionary
  0
DICTIONARY
  5
1A
330
C
100
AcDbDictionary
  0
DICTIONARY
  5
17
330
C
100
AcDbDictionary
  3
STANDARD
350
18
  0
DICTIONARY
  5
19
330
C
100
AcDbDictionary
  0
ENDSEC
  0
EOF
